HIERARCHY
ROOT hip
{
	OFFSET 0.000000 0.000000 0.000000 
	CHANNELS 6 Xposition Yposition Zposition Xrotation Zrotation Yrotation
	JOINT abdomen
	{
		OFFSET 0.000000 3.402643 0.000000 
		CHANNELS 3 Xrotation Zrotation Yrotation
		JOINT chest
		{
			OFFSET 0.000000 8.438565 -0.680529 
			CHANNELS 3 Xrotation Zrotation Yrotation
			JOINT neck
			{
				OFFSET 0.000000 10.207942 -0.272212 
				CHANNELS 3 Xrotation Zrotation Yrotation
				JOINT head
				{
					OFFSET 0.000000 3.130431 0.000000 
					CHANNELS 3 Xrotation Zrotation Yrotation
					End Site
					{
						OFFSET 0.000000 3.130435 0.000000 
					}
				}
			}
			JOINT lCollar
			{
				OFFSET 3.470700 6.669187 -0.816635 
				CHANNELS 3 Yrotation Zrotation Xrotation
				JOINT lShldr
				{
					OFFSET 3.198488 0.000000 0.000000 
					CHANNELS 3 Zrotation Yrotation Xrotation
					JOINT lForeArm
					{
						OFFSET 10.139888 0.000000 0.000000 
						CHANNELS 3 Yrotation Zrotation Xrotation
						JOINT lHand
						{
							OFFSET 8.370511 0.000000 0.000000 
							CHANNELS 3 Zrotation Yrotation Xrotation
							End Site
							{
								OFFSET 4.083176 0.000000 0.000000 
							}
						}
					}
				}
			}
			JOINT rCollar
			{
				OFFSET -3.470700 6.669187 -0.816635 
				CHANNELS 3 Yrotation Zrotation Xrotation
				JOINT rShldr
				{
					OFFSET -3.198488 0.000000 0.000000 
					CHANNELS 3 Zrotation Yrotation Xrotation
					JOINT rForeArm
					{
						OFFSET -10.139888 0.000000 0.000000 
						CHANNELS 3 Yrotation Zrotation Xrotation
						JOINT rHand
						{
							OFFSET -8.370511 0.000000 0.000000 
							CHANNELS 3 Zrotation Yrotation Xrotation
							End Site
							{
								OFFSET -4.083176 0.000000 0.000000 
							}
						}
					}
				}
			}
		}
	}
	JOINT lThigh
	{
		OFFSET 5.308129 -1.633274 1.361059 
		CHANNELS 3 Xrotation Zrotation Yrotation
		JOINT lShin
		{
			OFFSET -2.041588 -20.007561 0.000000 
			CHANNELS 3 Xrotation Zrotation Yrotation
			JOINT lFoot
			{
				OFFSET 0.000000 -19.190928 -1.224953 
				CHANNELS 3 Xrotation Yrotation Zrotation
				End Site
				{
					OFFSET 0.000000 -2.449906 4.627600 
				}
			}
		}
	}
	JOINT rThigh
	{
		OFFSET -5.308129 -1.633274 1.361059 
		CHANNELS 3 Xrotation Zrotation Yrotation
		JOINT rShin
		{
			OFFSET 2.041588 -20.007561 0.000000 
			CHANNELS 3 Xrotation Zrotation Yrotation
			JOINT rFoot
			{
				OFFSET 0.000000 -19.190928 -1.224953 
				CHANNELS 3 Xrotation Yrotation Zrotation
				End Site
				{
					OFFSET 0.000000 -2.449906 4.627600 
				}
			}
		}
	}
}
MOTION
Frames: 13
Frame Time: 0.016667
0.195935 56.013187 0.938998 9.970280 3.530000 -0.581017 -18.518999 -2.178310 1.223300 15.078100 -0.058326 0.298563 24.731758 -4.831701 12.139173 15.727200 -2.185180 5.643950 2.000000 -2.000000 0.000000 101.094002 178.074005 5.103170 88.154800 -0.219251 0.136691 0.071657 -0.072382 -163.738007 -2.000000 2.000000 0.000000 -94.529404 -169.981995 3.236250 -52.129398 0.298777 0.107928 -0.072324 0.050511 -155.270996 -29.917599 -11.864303 -10.224854 40.960178 1.623335 3.268467 -16.611963 1.270445 -1.394349 -41.782116 -2.011717 -3.441217 87.364975 1.504716 -4.891577 6.211315 3.327114 0.353292 
0.261327 56.637989 2.165386 9.177390 4.377060 -1.168390 -18.760599 -1.927040 1.004830 15.107000 0.680504 0.179226 24.675131 -4.375747 12.676857 15.803900 -1.897930 5.915700 2.000000 -2.000000 0.000000 100.878998 176.597000 6.066700 88.301300 -0.218902 0.136702 0.069865 -0.068723 -162.283005 -2.000000 2.000000 0.000000 -94.714600 -169.585999 1.614160 -49.775902 0.303138 0.104390 -0.071883 0.049159 -154.764008 -25.419870 -12.375116 -10.375998 36.256714 1.791429 2.981307 -15.911926 1.758459 -1.209022 -45.888458 -2.863046 -2.162899 89.462074 1.769001 -4.932691 -0.505445 2.081227 0.580061 
0.281887 57.095352 3.402207 8.107450 5.017960 -1.209270 -18.700300 -1.742110 0.774769 15.213800 1.147340 0.068509 25.132568 -4.186822 12.440897 16.136999 -2.077720 5.768070 2.000000 -2.000000 0.000000 100.889000 176.242004 7.276860 87.266098 -0.221370 0.136607 0.067100 -0.062560 -159.871002 -2.000000 2.000000 0.000000 -94.577904 -169.707993 -0.504684 -46.992599 0.308102 0.099980 -0.071841 0.049029 -154.714996 -20.919559 -12.678099 -10.193595 32.137482 1.936762 2.685217 -15.188663 1.399603 -1.312562 -49.190510 -3.495429 -0.957953 88.459267 1.665944 -4.930809 -5.416731 0.675422 0.559217 
0.268616 57.387848 4.647038 7.227530 5.231770 -1.319090 -19.036900 -1.114660 0.363855 14.878700 2.176780 -0.108794 24.868011 -4.596780 12.407660 15.727400 -2.223430 5.841100 2.000000 -2.000000 0.000000 -79.833199 5.625310 -171.662994 86.611801 -0.222929 0.136524 0.053840 -0.053563 -156.423996 -2.000000 2.000000 0.000000 -95.192802 -168.968994 -1.805370 -44.248501 0.312782 0.095400 -0.072594 0.051314 -155.574005 -17.039824 -12.588090 -10.013148 28.831772 2.054327 2.468375 -14.899796 1.005854 -1.449441 -51.732780 -3.521145 0.399414 84.662926 1.255581 -4.858017 -8.635518 -0.725134 0.359414 
0.248900 57.552975 5.931749 6.405150 5.366880 -0.286991 -18.712400 -0.782549 -0.085339 15.385700 2.509290 -0.295150 24.641844 -3.874377 12.084010 15.872800 -2.002730 5.647210 2.000000 -2.000000 0.000000 -80.027901 5.580350 -170.022003 85.342300 -0.225951 0.136311 0.049954 -0.040972 -151.716995 -2.000000 2.000000 0.000000 -95.251602 -169.052002 -3.641110 -42.051201 0.316367 0.091575 -0.073871 0.054953 -156.951004 -13.400487 -12.617211 -10.343777 26.259901 2.146806 2.271424 -14.850367 0.316220 -1.731341 -52.997395 -4.314940 1.160349 78.454475 0.618782 -4.721274 -11.383574 -2.488399 -0.196543 
0.182752 57.591137 7.210979 5.796210 5.285490 0.389688 -18.515100 -0.204035 -0.405143 15.842600 3.124180 -0.393833 24.140938 -3.790828 11.868135 15.637900 -1.936990 5.581290 2.000000 -2.000000 0.000000 -80.456703 5.457450 -168.292999 83.848198 -0.229500 0.135976 0.046547 -0.024705 -145.779007 -2.000000 2.000000 0.000000 -95.486298 -169.016006 -5.174400 -40.166401 0.319324 0.088187 -0.075476 0.059170 -158.561996 -10.606378 -12.274076 -10.007185 24.664324 2.264867 2.103634 -14.841631 -1.365644 -2.335842 -53.391071 -4.566768 2.342047 70.628670 -0.164639 -4.441298 -12.964695 -4.252693 -0.837743 
0.074768 57.607895 8.536817 5.052500 5.486540 1.051310 -18.251699 0.389451 -0.601002 16.200899 3.895000 -0.442913 23.853977 -3.418707 11.534699 15.569100 -1.851210 5.415670 2.000000 -2.000000 0.000000 -81.256699 5.334070 -166.759995 82.803299 -0.231977 0.135687 0.045040 -0.011422 -141.003998 -2.000000 2.000000 0.000000 -95.603996 -169.175995 -6.873230 -38.232800 0.322240 0.084611 -0.076537 0.061778 -159.567993 -7.405329 -12.128252 -9.703233 22.840355 2.376909 1.925567 -14.980161 -2.244591 -2.679147 -52.506699 -5.031148 3.980440 61.783958 -0.973974 -4.054650 -13.609566 -4.105465 -1.127199 
-0.105329 57.531189 9.915870 4.710950 5.713180 1.740130 -18.076700 0.715350 -0.787677 16.746700 4.375110 -0.496047 23.558928 -2.240386 11.209761 15.685200 -1.554200 5.258310 2.000000 -2.000000 0.000000 -81.792999 5.044170 -165.431000 81.582603 -0.234863 0.135291 0.044639 -0.001368 -137.410004 -2.000000 2.000000 0.000000 84.629997 -10.771700 171.867004 -36.611698 0.324590 0.081539 -0.076834 0.062484 -159.841995 -4.960541 -12.067867 -9.584521 21.848196 2.511462 1.811585 -15.149735 -3.078139 -3.035271 -51.051289 -5.472200 5.584808 53.316631 -1.688320 -3.602746 -14.387616 -3.966241 -1.448230 
-0.338293 57.378571 11.382567 4.452110 6.455240 2.737980 -17.851700 0.748725 -0.948243 17.499300 4.749120 -0.556042 23.206081 -0.998346 10.886217 15.752600 -1.238440 5.126760 2.000000 -2.000000 0.000000 -82.173103 5.124930 -164.289001 81.152901 -0.235876 0.135137 0.044668 -0.006375 -135.710999 -2.000000 2.000000 0.000000 85.253998 -10.298400 169.944000 -34.726898 0.327213 0.077886 -0.075165 0.058381 -158.259995 -2.198129 -12.391573 -9.151572 20.514896 2.663485 1.663759 -15.462702 -3.368363 -3.205261 -49.392475 -6.548445 7.013654 47.022171 -2.192155 -3.226926 -14.332376 -4.563724 -1.729933 
-0.641698 57.280338 12.939722 4.288010 6.797500 3.478270 -17.646700 0.837528 -1.044240 18.165001 4.927370 -0.566113 23.254814 0.160134 10.387588 16.006300 -1.113640 4.874230 2.000000 -2.000000 0.000000 -82.445999 5.087770 -163.457993 80.938004 -0.236383 0.135058 0.044658 0.002843 -135.906006 -2.000000 2.000000 0.000000 86.043900 -9.639610 168.014008 -33.047199 0.329447 0.074559 -0.072567 0.051237 -155.544998 0.170546 -12.258084 -8.713696 19.469482 2.902843 1.511942 -14.667665 -4.166809 -3.344970 -47.382896 -7.018445 7.879595 42.884727 -2.523080 -2.957987 -12.446092 -4.681756 -1.601330 
-0.987402 57.194748 14.580647 4.536690 7.087330 3.842680 -17.920099 0.919923 -1.158680 18.321301 5.074280 -0.607189 23.359617 0.940246 10.049188 16.084400 -1.075280 4.734400 2.000000 -2.000000 0.000000 -82.787697 5.840790 -162.990997 80.869698 -0.236544 0.135032 0.044638 -0.001259 -137.371002 -2.000000 2.000000 0.000000 86.483002 -9.881880 167.212997 -32.099998 0.330664 0.072654 -0.060478 0.043741 -152.742004 1.806484 -12.128502 -8.232377 19.461559 3.126128 1.438995 -13.758445 -4.421467 -3.257610 -45.506649 -7.133676 8.066672 40.506252 -2.601958 -2.825926 -11.789823 -4.630416 -1.587264 
-1.400161 57.144478 16.308857 5.575240 7.503810 4.734380 -18.562599 0.792719 -1.388270 18.350901 5.035350 -0.700762 23.482306 2.115785 9.774507 16.318501 -0.855374 4.582590 2.000000 -2.000000 0.000000 -82.542900 6.556100 -161.927994 80.469299 -0.237487 0.134877 0.044766 -0.006535 -139.255997 -2.000000 2.000000 0.000000 87.117500 -10.377900 166.332993 -31.816700 0.331022 0.072080 -0.058180 0.034620 -149.382996 2.501614 -11.996487 -8.359210 19.611603 3.291331 1.414477 -11.965328 -5.011976 -3.114843 -44.161453 -7.475477 7.423462 39.853168 -2.552852 -2.811003 -10.979274 -4.353980 -1.498603 
-1.874914 57.220528 18.167831 6.725460 7.972820 4.785150 -19.089800 0.757951 -1.398560 18.556601 5.075050 -0.684114 23.763037 2.948271 9.581311 16.601601 -0.712075 4.454070 2.000000 -2.000000 0.000000 -82.327599 7.534830 -160.973999 80.088402 -0.238382 0.134724 0.044980 -0.010549 -140.690994 -2.000000 2.000000 0.000000 87.400497 -10.494100 165.921997 -31.426100 0.331510 0.071287 -0.056656 0.026811 -146.541000 2.982155 -11.886296 -8.192576 19.830196 3.455962 1.389154 -8.922010 -5.424369 -2.600316 -42.958797 -7.217907 7.573671 39.615311 -2.462590 -2.833248 -8.729043 -3.460577 -1.128929 
